<svg version="1.0" xmlns="http://www.w3.org/2000/svg" width="128.000000pt" height="128.000000pt" viewBox="0 0 128.000000 128.000000" preserveAspectRatio="xMidYMid meet"> <g transform="translate(0.000000,128.000000) scale(0.100000,-0.100000)" fill="white" stroke="none"> <path d="M1123 1135 c-348 -55 -570 -143 -713 -285 l-75 -75 52 -3 c62 -4 99 11 207 80 189 121 335 168 549 176 l137 5 0 58 c0 59 0 59 -37 58 -21 -1 -75 -7 -120 -14z"/> <path d="M1110 978 c-132 -23 -162 -38 -75 -38 74 0 68 -6 -35 -33 -83 -22 -83 -22 -94 -68 -17 -64 -50 -105 -114 -142 -56 -31 -56 -31 -22 -38 19 -4 62 -13 94 -19 l60 -12 -80 -75 -79 -74 85 64 c113 85 245 170 347 224 l83 45 0 94 c0 111 14 104 -170 72z"/> <path d="M791 886 c-20 -7 -38 -22 -43 -36 -13 -36 -38 -60 -63 -60 -12 0 -37 -5 -55 -11 -33 -12 -33 -12 -9 -25 65 -36 164 -4 198 65 42 83 38 91 -28 67z"/> <path d="M1165 667 c-184 -107 -303 -187 -450 -305 -75 -60 -245 -216 -245 -225 0 -2 71 43 157 100 252 166 422 256 583 308 30 9 59 21 63 25 4 4 7 41 5 84 l-3 76 -110 -63z"/> <path d="M307 701 c-79 -41 -100 -177 -43 -276 l29 -49 14 39 c16 48 44 79 103 117 49 31 197 82 273 93 27 4 45 11 40 15 -8 7 -286 65 -351 73 -19 2 -47 -3 -65 -12z m54 -32 c-13 -11 -27 -17 -30 -13 -3 3 5 14 18 25 13 11 27 17 30 13 3 -3 -5 -14 -18 -25z"/> <path d="M1225 493 c-230 -89 -384 -162 -440 -208 -20 -17 -20 -17 0 -9 150 58 313 103 458 128 37 7 37 7 37 56 0 55 1 54 -55 33z"/> <path d="M435 480 c-12 -5 11 -6 55 -3 41 3 77 7 79 9 9 8 -115 2 -134 -6z"/> </g> </svg>